<svg id="Layer_1" data-name="Layer 1" xmlns="http://www.w3.org/2000/svg" viewBox="0 0 122.88 122.88"><defs><style>.cls-1{fill:#25d366;}</style></defs><title>whatsapp-round-line-color</title><path class="cls-1" d="M61.44,0A61.46,61.46,0,1,1,18,18,61.21,61.21,0,0,1,61.44,0ZM82.09,41.74A27.52,27.52,0,0,0,38.78,75L34.87,89.21l14.6-3.83a27.41,27.41,0,0,0,13.14,3.36h0a27.53,27.53,0,0,0,19.46-47ZM62.62,84.09A22.8,22.8,0,0,1,51,80.9l-.83-.5-8.66,2.27,2.31-8.44-.54-.87A22.87,22.87,0,1,1,62.62,84.09ZM75.17,67c-.69-.34-4.07-2-4.7-2.23s-1.09-.35-1.55.35-1.78,2.23-2.19,2.7-.8.52-1.48.17a18.85,18.85,0,0,1-5.53-3.42,21,21,0,0,1-3.83-4.76c-.4-.68,0-1.06.3-1.4s.69-.8,1-1.2A4.68,4.68,0,0,0,57.91,56a1.25,1.25,0,0,0-.06-1.21c-.17-.34-1.55-3.73-2.11-5.11s-1.13-1.16-1.55-1.18-.86,0-1.31,0a2.55,2.55,0,0,0-1.84.85,7.74,7.74,0,0,0-2.41,5.74c0,3.39,2.47,6.65,2.81,7.12s4.85,7.41,11.75,10.39c1.64.7,2.92,1.12,3.92,1.45a9.42,9.42,0,0,0,4.33.27c1.32-.19,4.06-1.66,4.64-3.27a5.57,5.57,0,0,0,.4-3.26c-.16-.31-.61-.48-1.31-.83Zm25.58-44.82A55.6,55.6,0,1,0,117,61.44a55.42,55.42,0,0,0-16.28-39.31Z"/></svg>